# xmcd
#
# Track frame offsets: 
#        150
#        17002
#        32717
#        49757
#        66667
#        79166
#        98761
#        117804
#        139049
#        154886
#        170601
#        184894
#
# Disc length: 2650 seconds
#
# Revision: 0
# Processed by: cddbd v1.5.2PL0 Copyright (c) Steve Scherf et al.
# Submitted via: ExactAudioCopy v0.99pb5
#
DISCID=a10a580c
DTITLE=Doobie Brothers - Greatest Hits and More [CD3]
DYEAR=1978
DGENRE=Rock
TTITLE0=What A Fool Believes
TTITLE1=Minute By Minute
TTITLE2=One By One
TTITLE3=Dependin' On You
TTITLE4=Sweet Feelin'
TTITLE5=Real Love
TTITLE6=One Step Closer
TTITLE7=No Stoppin' Us Now
TTITLE8=Keep This Train A-Rollin'
TTITLE9=Here To Love You
TTITLE10=Nothin' But A Heartache
TTITLE11=You Belong To Me
EXTD=
EXTT0=
EXTT1=
EXTT2=
EXTT3=
EXTT4=
EXTT5=
EXTT6=
EXTT7=
EXTT8=
EXTT9=
EXTT10=
EXTT11=
PLAYORDER=
